<svg xmlns="http://www.w3.org/2000/svg" version="1.1" xmlns:xlink="http://www.w3.org/1999/xlink" xmlns:svgjs="http://svgjs.dev/svgjs" width="2000" height="1252" viewBox="0 0 2000 1252"><g transform="matrix(1,0,0,1,-1.2121212121212466,-2.01935483870966)"><svg viewBox="0 0 396 248" data-background-color="#ffffff" preserveAspectRatio="xMidYMid meet" height="1252" width="2000" xmlns="http://www.w3.org/2000/svg" xmlns:xlink="http://www.w3.org/1999/xlink"><g id="tight-bounds" transform="matrix(1,0,0,1,0.2400000000000091,0.4000000000000057)"><svg viewBox="0 0 395.52 247.2" height="247.2" width="395.52"><g><svg></svg></g><g><svg viewBox="0 0 395.52 247.2" height="247.2" width="395.52"><mask id="715509c2-9da0-4e27-ade3-bc3f548a3f15"><rect width="640" height="400" fill="white"></rect><g transform="matrix(1,0,0,1,39.55199999999999,77.81532606541128)"><svg viewBox="0 0 316.416 91.5693478691774" height="91.5693478691774" width="316.416"><g><svg viewBox="0 0 316.416 91.5693478691774" height="91.5693478691774" width="316.416"><g><svg viewBox="0 0 316.416 91.5693478691774" height="91.5693478691774" width="316.416"><g><svg viewBox="0 0 316.416 91.5693478691774" height="91.5693478691774" width="316.416"><g id="SvgjsG2851"><svg viewBox="0 0 316.416 91.5693478691774" height="91.5693478691774" width="316.416" id="SvgjsSvg2850"><g><svg viewBox="0 0 316.416 91.5693478691774" height="91.5693478691774" width="316.416"><g transform="matrix(1,0,0,1,0,0)"><svg width="316.416" viewBox="-2 -40 152.34 44.8" height="91.5693478691774" data-palette-color="url(#b026342e-101c-443c-b250-4195ffdb22ed)"><path d="M6.85-3.95L2-3.95 16.55-31.3 21.35-31.3 6.85-3.95ZM21.35 0L2 0 2-3.95 21.35-3.95 21.35 0ZM21.35-31.3L2-31.3 2-35.25 21.35-35.25 21.35-31.3ZM31.4 0L26.85 0 26.85-25.25 31.4-25.25 31.4 0ZM29.1-28.6L29.1-28.6Q27.85-28.6 27-29.45 26.15-30.3 26.15-31.55L26.15-31.55Q26.15-32.8 27-33.68 27.85-34.55 29.1-34.55L29.1-34.55Q30.35-34.55 31.22-33.68 32.1-32.8 32.1-31.55L32.1-31.55Q32.1-30.3 31.22-29.45 30.35-28.6 29.1-28.6ZM55.35 0L50.6 0 41.65-13.95 46-15.4 55.35 0ZM54.75-25.25L41.8-9 38.3-11.35 49.25-25.25 54.75-25.25ZM42.45 0L37.9 0 37.9-36 42.45-36 42.45 0ZM76.94 0L72.19 0 63.24-13.95 67.59-15.4 76.94 0ZM76.34-25.25L63.39-9 59.89-11.35 70.84-25.25 76.34-25.25ZM64.04 0L59.49 0 59.49-36 64.04-36 64.04 0ZM99.19-9.35L94.64-9.35 94.64-25.9 99.19-25.9 99.19-9.35ZM89.34 0L84.39 0 84.39-3.95 89.34-3.95 89.34 0ZM89.34-31.3L84.39-31.3 84.39-35.25 89.34-35.25 89.34-31.3ZM89.34-31.3L84.39-31.3 84.39-35.25 89.34-35.25 89.34-31.3ZM99.19-25.9L99.19-25.9 94.64-25.9Q94.64-28.5 93.24-29.9 91.84-31.3 89.34-31.3L89.34-31.3 89.34-35.25Q92.24-35.25 94.47-34.08 96.69-32.9 97.94-30.78 99.19-28.65 99.19-25.9ZM94.64-9.4L99.19-9.4Q99.19-6.6 97.94-4.5 96.69-2.4 94.47-1.2 92.24 0 89.34 0L89.34 0 89.34-3.95Q91.84-3.95 93.24-5.38 94.64-6.8 94.64-9.4L94.64-9.4ZM85.74 0L81.19 0 81.19-35.25 85.74-35.25 85.74 0ZM122.09-11.25L105.04-11.25 105.04-14.5 122.09-14.5 122.09-11.25ZM113.04 0.8L112.79 0.8 112.79-3.15 113.04-3.15 113.04 0.8ZM108.14-8.95L103.59-8.95 103.59-16.3 108.14-16.3 108.14-8.95ZM122.09-14.5L117.54-14.5 117.54-17.1 122.09-17.1 122.09-14.5ZM122.09-17.1L122.09-17.1 117.54-17.1Q117.54-19.3 116.21-20.7 114.89-22.1 112.79-22.1L112.79-22.1 112.79-26Q115.49-26 117.56-24.85 119.64-23.7 120.86-21.68 122.09-19.65 122.09-17.1ZM117.74-7.5L117.74-7.5 121.99-6.65Q121.69-4.5 120.44-2.8 119.19-1.1 117.29-0.15 115.39 0.8 113.04 0.8L113.04 0.8 113.04-3.15Q114.84-3.15 116.16-4.23 117.49-5.3 117.74-7.5ZM108.14-16.25L103.59-16.25Q103.59-19.1 104.81-21.28 106.04-23.45 108.11-24.73 110.19-26 112.84-26L112.84-26 112.84-22.1Q110.64-22.1 109.39-20.58 108.14-19.05 108.14-16.25L108.14-16.25ZM103.59-8.95L103.59-8.95 108.14-8.95Q108.14-6.2 109.39-4.67 110.64-3.15 112.84-3.15L112.84-3.15 112.84 0.8Q110.19 0.8 108.11-0.48 106.04-1.75 104.81-3.95 103.59-6.15 103.59-8.95ZM138.19 0L133.99 0 141.79-25.25 146.34-25.25 138.19 0ZM137.69 0L133.54 0 125.34-25.25 129.89-25.25 137.69 0Z" opacity="1" transform="matrix(1,0,0,1,0,0)" fill="black" class="wordmark-text-0" id="SvgjsPath2849" stroke-width="7" stroke="black" stroke-linejoin="round"></path></svg></g></svg></g></svg></g></svg></g><g></g></svg></g></svg></g></svg></g></mask><g transform="matrix(1,0,0,1,39.55199999999999,77.81532606541128)"><svg viewBox="0 0 316.416 91.5693478691774" height="91.5693478691774" width="316.416"><g><svg viewBox="0 0 316.416 91.5693478691774" height="91.5693478691774" width="316.416"><g><svg viewBox="0 0 316.416 91.5693478691774" height="91.5693478691774" width="316.416"><g><svg viewBox="0 0 316.416 91.5693478691774" height="91.5693478691774" width="316.416"><g id="textblocktransform"><svg viewBox="0 0 316.416 91.5693478691774" height="91.5693478691774" width="316.416" id="textblock"><g><svg viewBox="0 0 316.416 91.5693478691774" height="91.5693478691774" width="316.416"><g transform="matrix(1,0,0,1,0,0)"><svg width="316.416" viewBox="-2 -40 152.34 44.8" height="91.5693478691774" data-palette-color="url(#b026342e-101c-443c-b250-4195ffdb22ed)"></svg></g></svg></g></svg></g></svg></g><g></g></svg></g></svg></g></svg></g><g mask="url(#715509c2-9da0-4e27-ade3-bc3f548a3f15)"><g transform="matrix(2.7244444444444444, 0, 0, 2.7244444444444444, 75.16, 1)"><svg xmlns="http://www.w3.org/2000/svg" xmlns:xlink="http://www.w3.org/1999/xlink" version="1.1" x="0" y="0" viewBox="5 5 90 90" style="enable-background:new 0 0 100 100;" xml:space="preserve" height="90" width="90" class="icon-none" data-fill-palette-color="accent" id="none"><g fill="#b10dc9" data-fill-palette-color="accent"><path d="M84 5H16C9.9 5 5 9.6 5 15.3V67C5 72.7 9.9 77.3 16 77.3H23.2V92.6C23.2 93.5 23.8 94.4 24.7 94.8 25.1 95 25.4 95 25.8 95 26.4 95 27 94.8 27.5 94.5L50.2 77.3H84C90.1 77.3 95 72.7 95 67V15.3C95 9.6 90.1 5 84 5M89.9 66.9C89.9 69.9 87.3 72.3 84.1 72.3H49.2C48.6 72.3 48 72.5 47.5 72.8L28.4 87.3V74.7C28.4 73.4 27.2 72.3 25.8 72.3H16C12.8 72.3 10.2 69.9 10.2 66.9V15.5C10.2 12.5 12.8 10.1 16 10.1H84.2C87.4 10.1 90 12.5 90 15.5V66.9z" fill="#b10dc9" data-fill-palette-color="accent"></path><polygon points="43.3,37.4 32,37.4 32,26.3 25.9,26.3 25.9,55.5 32,55.5 32,42.5 43.3,42.5 43.3,55.5 49.4,55.5 49.4,26.3    43.3,26.3  " fill="#b10dc9" data-fill-palette-color="accent"></polygon><polygon points="75.7,31.2 75.7,26.3 53.6,26.3 53.6,31.5 68.1,31.5 53.2,50.3 53.2,55.5 75.7,55.5 75.7,50.3 60.6,50.3  " fill="#b10dc9" data-fill-palette-color="accent"></polygon></g></svg></g></g></svg></g><defs></defs><mask id="6b7b0681-24a8-4fbe-9db4-52e7551e50be"><g id="SvgjsG2861"><svg viewBox="0 0 395.52 247.2" height="247.2" width="395.52"><g><svg></svg></g><g><svg viewBox="0 0 395.52 247.2" height="247.2" width="395.52"><mask id="SvgjsMask2860"><rect width="640" height="400" fill="black"></rect><g transform="matrix(1,0,0,1,39.55199999999999,77.81532606541128)"><svg viewBox="0 0 316.416 91.5693478691774" height="91.5693478691774" width="316.416"><g><svg viewBox="0 0 316.416 91.5693478691774" height="91.5693478691774" width="316.416"><g><svg viewBox="0 0 316.416 91.5693478691774" height="91.5693478691774" width="316.416"><g><svg viewBox="0 0 316.416 91.5693478691774" height="91.5693478691774" width="316.416"><g id="SvgjsG2859"><svg viewBox="0 0 316.416 91.5693478691774" height="91.5693478691774" width="316.416" id="SvgjsSvg2858"><g><svg viewBox="0 0 316.416 91.5693478691774" height="91.5693478691774" width="316.416"><g transform="matrix(1,0,0,1,0,0)"><svg width="316.416" viewBox="-2 -40 152.34 44.8" height="91.5693478691774" data-palette-color="url(#b026342e-101c-443c-b250-4195ffdb22ed)"><path d="M6.85-3.95L2-3.95 16.55-31.3 21.35-31.3 6.85-3.95ZM21.35 0L2 0 2-3.95 21.35-3.95 21.35 0ZM21.35-31.3L2-31.3 2-35.25 21.35-35.25 21.35-31.3ZM31.4 0L26.85 0 26.85-25.25 31.4-25.25 31.4 0ZM29.1-28.6L29.1-28.6Q27.85-28.6 27-29.45 26.15-30.3 26.15-31.55L26.15-31.55Q26.15-32.8 27-33.68 27.85-34.55 29.1-34.55L29.1-34.55Q30.35-34.55 31.22-33.68 32.1-32.8 32.1-31.55L32.1-31.55Q32.1-30.3 31.22-29.45 30.35-28.6 29.1-28.6ZM55.35 0L50.6 0 41.65-13.95 46-15.4 55.35 0ZM54.75-25.25L41.8-9 38.3-11.35 49.25-25.25 54.75-25.25ZM42.45 0L37.9 0 37.9-36 42.45-36 42.45 0ZM76.94 0L72.19 0 63.24-13.95 67.59-15.4 76.94 0ZM76.34-25.25L63.39-9 59.89-11.35 70.84-25.25 76.34-25.25ZM64.04 0L59.49 0 59.49-36 64.04-36 64.04 0ZM99.19-9.35L94.64-9.35 94.64-25.9 99.19-25.9 99.19-9.35ZM89.34 0L84.39 0 84.39-3.95 89.34-3.95 89.34 0ZM89.34-31.3L84.39-31.3 84.39-35.25 89.34-35.25 89.34-31.3ZM89.34-31.3L84.39-31.3 84.39-35.25 89.34-35.25 89.34-31.3ZM99.19-25.9L99.19-25.9 94.64-25.9Q94.64-28.5 93.24-29.9 91.84-31.3 89.34-31.3L89.34-31.3 89.34-35.25Q92.24-35.25 94.47-34.08 96.69-32.9 97.94-30.78 99.19-28.65 99.19-25.9ZM94.64-9.4L99.19-9.4Q99.19-6.6 97.94-4.5 96.69-2.4 94.47-1.2 92.24 0 89.34 0L89.34 0 89.34-3.95Q91.84-3.95 93.24-5.38 94.64-6.8 94.64-9.4L94.64-9.4ZM85.74 0L81.19 0 81.19-35.25 85.74-35.25 85.74 0ZM122.09-11.25L105.04-11.25 105.04-14.5 122.09-14.5 122.09-11.25ZM113.04 0.8L112.79 0.8 112.79-3.15 113.04-3.15 113.04 0.8ZM108.14-8.95L103.59-8.95 103.59-16.3 108.14-16.3 108.14-8.95ZM122.09-14.5L117.54-14.5 117.54-17.1 122.09-17.1 122.09-14.5ZM122.09-17.1L122.09-17.1 117.54-17.1Q117.54-19.3 116.21-20.7 114.89-22.1 112.79-22.1L112.79-22.1 112.79-26Q115.49-26 117.56-24.85 119.64-23.7 120.86-21.68 122.09-19.65 122.09-17.1ZM117.74-7.5L117.74-7.5 121.99-6.65Q121.69-4.5 120.44-2.8 119.19-1.1 117.29-0.15 115.39 0.8 113.04 0.8L113.04 0.8 113.04-3.15Q114.84-3.15 116.16-4.23 117.49-5.3 117.74-7.5ZM108.14-16.25L103.59-16.25Q103.59-19.1 104.81-21.28 106.04-23.45 108.11-24.73 110.19-26 112.84-26L112.84-26 112.84-22.1Q110.64-22.1 109.39-20.58 108.14-19.05 108.14-16.25L108.14-16.25ZM103.59-8.95L103.59-8.95 108.14-8.95Q108.14-6.2 109.39-4.67 110.64-3.15 112.84-3.15L112.84-3.15 112.84 0.8Q110.19 0.8 108.11-0.48 106.04-1.75 104.81-3.95 103.59-6.15 103.59-8.95ZM138.19 0L133.99 0 141.79-25.25 146.34-25.25 138.19 0ZM137.69 0L133.54 0 125.34-25.25 129.89-25.25 137.69 0Z" opacity="1" transform="matrix(1,0,0,1,0,0)" fill="black" class="wordmark-text-0" id="SvgjsPath2857" stroke-width="7" stroke="black" stroke-linejoin="round"></path></svg></g></svg></g></svg></g></svg></g><g></g></svg></g></svg></g></svg></g></mask><g transform="matrix(1,0,0,1,39.55199999999999,77.81532606541128)"><svg viewBox="0 0 316.416 91.5693478691774" height="91.5693478691774" width="316.416"><g><svg viewBox="0 0 316.416 91.5693478691774" height="91.5693478691774" width="316.416"><g><svg viewBox="0 0 316.416 91.5693478691774" height="91.5693478691774" width="316.416"><g><svg viewBox="0 0 316.416 91.5693478691774" height="91.5693478691774" width="316.416"><g id="SvgjsG2856"><svg viewBox="0 0 316.416 91.5693478691774" height="91.5693478691774" width="316.416" id="SvgjsSvg2855"><g><svg viewBox="0 0 316.416 91.5693478691774" height="91.5693478691774" width="316.416"><g transform="matrix(1,0,0,1,0,0)"><svg width="316.416" viewBox="-2 -40 152.34 44.8" height="91.5693478691774" data-palette-color="url(#b026342e-101c-443c-b250-4195ffdb22ed)"><path d="M6.85-3.95L2-3.95 16.55-31.3 21.35-31.3 6.85-3.95ZM21.35 0L2 0 2-3.95 21.35-3.95 21.35 0ZM21.35-31.3L2-31.3 2-35.25 21.35-35.25 21.35-31.3ZM31.4 0L26.85 0 26.85-25.25 31.4-25.25 31.4 0ZM29.1-28.6L29.1-28.6Q27.85-28.6 27-29.45 26.15-30.3 26.15-31.55L26.15-31.55Q26.15-32.8 27-33.68 27.85-34.55 29.1-34.55L29.1-34.55Q30.35-34.55 31.22-33.68 32.1-32.8 32.1-31.55L32.1-31.55Q32.1-30.3 31.22-29.45 30.35-28.6 29.1-28.6ZM55.35 0L50.6 0 41.65-13.95 46-15.4 55.35 0ZM54.75-25.25L41.8-9 38.3-11.35 49.25-25.25 54.75-25.25ZM42.45 0L37.9 0 37.9-36 42.45-36 42.45 0ZM76.94 0L72.19 0 63.24-13.95 67.59-15.4 76.94 0ZM76.34-25.25L63.39-9 59.89-11.35 70.84-25.25 76.34-25.25ZM64.04 0L59.49 0 59.49-36 64.04-36 64.04 0ZM99.19-9.35L94.64-9.35 94.64-25.9 99.19-25.9 99.19-9.35ZM89.34 0L84.39 0 84.39-3.95 89.34-3.95 89.34 0ZM89.34-31.3L84.39-31.3 84.39-35.25 89.34-35.25 89.34-31.3ZM89.34-31.3L84.39-31.3 84.39-35.25 89.34-35.25 89.34-31.3ZM99.19-25.9L99.19-25.9 94.64-25.9Q94.64-28.5 93.24-29.9 91.84-31.3 89.34-31.3L89.34-31.3 89.34-35.25Q92.24-35.25 94.47-34.08 96.69-32.9 97.94-30.78 99.19-28.65 99.19-25.9ZM94.64-9.4L99.19-9.4Q99.19-6.6 97.94-4.5 96.69-2.4 94.47-1.2 92.24 0 89.34 0L89.34 0 89.34-3.95Q91.84-3.95 93.24-5.38 94.64-6.8 94.64-9.4L94.64-9.4ZM85.74 0L81.19 0 81.19-35.25 85.74-35.25 85.74 0ZM122.09-11.25L105.04-11.25 105.04-14.5 122.09-14.5 122.09-11.25ZM113.04 0.8L112.79 0.8 112.79-3.15 113.04-3.15 113.04 0.8ZM108.14-8.95L103.59-8.95 103.59-16.3 108.14-16.3 108.14-8.95ZM122.09-14.5L117.54-14.5 117.54-17.1 122.09-17.1 122.09-14.5ZM122.09-17.1L122.09-17.1 117.54-17.1Q117.54-19.3 116.21-20.7 114.89-22.1 112.79-22.1L112.79-22.1 112.79-26Q115.49-26 117.56-24.85 119.64-23.7 120.86-21.68 122.09-19.65 122.09-17.1ZM117.74-7.5L117.74-7.5 121.99-6.65Q121.69-4.5 120.44-2.8 119.19-1.1 117.29-0.15 115.39 0.8 113.04 0.8L113.04 0.8 113.04-3.15Q114.84-3.15 116.16-4.23 117.49-5.3 117.74-7.5ZM108.14-16.25L103.59-16.25Q103.59-19.1 104.81-21.28 106.04-23.45 108.11-24.73 110.19-26 112.84-26L112.84-26 112.84-22.1Q110.64-22.1 109.39-20.58 108.14-19.05 108.14-16.25L108.14-16.25ZM103.59-8.95L103.59-8.95 108.14-8.95Q108.14-6.2 109.39-4.67 110.64-3.15 112.84-3.15L112.84-3.15 112.84 0.8Q110.19 0.8 108.11-0.48 106.04-1.75 104.81-3.95 103.59-6.15 103.59-8.95ZM138.19 0L133.99 0 141.79-25.25 146.34-25.25 138.19 0ZM137.69 0L133.54 0 125.34-25.25 129.89-25.25 137.69 0Z" opacity="1" transform="matrix(1,0,0,1,0,0)" fill="white" class="wordmark-text-0" id="SvgjsPath2854"></path></svg></g></svg></g></svg></g></svg></g><g></g></svg></g></svg></g></svg></g><g mask="url(#715509c2-9da0-4e27-ade3-bc3f548a3f15)"><g transform="matrix(2.7244444444444444, 0, 0, 2.7244444444444444, 75.16, 1)"><svg xmlns="http://www.w3.org/2000/svg" xmlns:xlink="http://www.w3.org/1999/xlink" version="1.1" x="0" y="0" viewBox="5 5 90 90" style="enable-background:new 0 0 100 100;" xml:space="preserve" height="90" width="90" class="icon-none" data-fill-palette-color="accent" id="SvgjsSvg2853"><g fill="black"><path d="M84 5H16C9.9 5 5 9.6 5 15.3V67C5 72.7 9.9 77.3 16 77.3H23.2V92.6C23.2 93.5 23.8 94.4 24.7 94.8 25.1 95 25.4 95 25.8 95 26.4 95 27 94.8 27.5 94.5L50.2 77.3H84C90.1 77.3 95 72.7 95 67V15.3C95 9.6 90.1 5 84 5M89.9 66.9C89.9 69.9 87.3 72.3 84.1 72.3H49.2C48.6 72.3 48 72.5 47.5 72.8L28.4 87.3V74.7C28.4 73.4 27.2 72.3 25.8 72.3H16C12.8 72.3 10.2 69.9 10.2 66.9V15.5C10.2 12.5 12.8 10.1 16 10.1H84.2C87.4 10.1 90 12.5 90 15.5V66.9z" fill="black"></path><polygon points="43.3,37.4 32,37.4 32,26.3 25.9,26.3 25.9,55.5 32,55.5 32,42.5 43.3,42.5 43.3,55.5 49.4,55.5 49.4,26.3    43.3,26.3  " fill="black"></polygon><polygon points="75.7,31.2 75.7,26.3 53.6,26.3 53.6,31.5 68.1,31.5 53.2,50.3 53.2,55.5 75.7,55.5 75.7,50.3 60.6,50.3  " fill="black"></polygon></g></svg></g></g></svg></g><defs><mask></mask></defs></svg><rect width="395.52" height="247.2" fill="black" stroke="none" visibility="hidden"></rect></g></mask><linearGradient x1="0" x2="1" y1="0.548" y2="0.55" id="b026342e-101c-443c-b250-4195ffdb22ed"><stop stop-color="#ff6cab" offset="0"></stop><stop stop-color="#7366ff" offset="1"></stop></linearGradient><rect width="395.52" height="247.2" fill="url(#b026342e-101c-443c-b250-4195ffdb22ed)" mask="url(#6b7b0681-24a8-4fbe-9db4-52e7551e50be)" data-fill-palette-color="primary"></rect></svg><rect width="395.52" height="247.2" fill="none" stroke="none" visibility="hidden"></rect></g></svg></g></svg>